<svg xmlns="http://www.w3.org/2000/svg" width="191" height="38" fill="none"><path fill="#56ADDE" d="M0 36.6V3h3v30.8h18.5v2.8H0ZM58.3 36.6V3h2.9l19 28.3V3h3v33.6h-3L61.2 8v28.6h-3ZM102.2 37.2c-2.6 0-5-.5-7-1.4-2.2-.9-4-2.3-5.4-4.3l2.4-1.6c1.2 1.4 2.6 2.5 4.2 3.3a13.7 13.7 0 0 0 10 .5 6.8 6.8 0 0 0 3-2 6.3 6.3 0 0 0 .4-6.6 6 6 0 0 0-2.9-2.5c-1.4-.6-3.6-1.2-6.4-1.7-6.3-1.2-9.4-4.3-9.4-9.4a8.6 8.6 0 0 1 5-8c1.7-.8 3.5-1.2 5.6-1.2 2.3 0 4.3.4 6 1.3 1.9.8 3.5 2 5 3.3l-2.1 2c-1.3-1-2.7-2-4-2.6-1.5-.7-3-1-5-1s-3.9.5-5.3 1.5a5.4 5.4 0 0 0-2.2 4.6c0 1.8.6 3.2 1.7 4.3 1.2 1.1 3.2 2 6.2 2.5 4.1.7 7.1 1.9 8.9 3.4a8.2 8.2 0 0 1 2.7 6.5A8 8 0 0 1 112 33a9.6 9.6 0 0 1-4.1 3.1c-1.8.7-3.7 1-5.8 1ZM129.3 37.1c-2 0-4-.5-5.6-1.4-1.6-1-2.8-2.4-3.8-4.2-.9-1.8-1.3-4-1.3-6.4 0-2.4.4-4.5 1.3-6.3 1-1.8 2.2-3.2 3.8-4.2a10 10 0 0 1 5.5-1.5c2 0 3.8.5 5.3 1.6 1.5 1 2.6 2.3 3.3 4a12 12 0 0 1 1.2 5.2v1h-17.5c0 2.8.6 5.2 2 7a7.1 7.1 0 0 0 5.9 2.6c1.7 0 3.2-.5 4.5-1.4 1.2-.9 2.2-2.2 3-4l2.3 1.4c-2 4.4-5.3 6.6-9.9 6.6Zm-7.6-14.8h14.4a8.4 8.4 0 0 0-3.6-5.8c-1-.6-2-1-3.3-1-2 0-3.6.7-5 1.9a8.5 8.5 0 0 0-2.5 5ZM145 36.6v-23h2.8l.1 3.3c.7-1.1 1.7-2 3-2.8a8.2 8.2 0 0 1 4.2-1c2.4 0 4.4.7 5.9 2.3 1.5 1.6 2.3 3.8 2.3 6.7v14.5h-3v-14c0-2.3-.5-4-1.6-5.1a5.4 5.4 0 0 0-4-1.7 7 7 0 0 0-3.5.9c-1 .5-1.8 1.3-2.4 2.2a6 6 0 0 0-.8 3.2v14.5h-3ZM179.8 37.1c-2 0-3.9-.5-5.5-1.5s-2.9-2.4-3.8-4.2c-1-1.8-1.4-4-1.4-6.3 0-2.4.5-4.5 1.4-6.3 1-1.8 2.2-3.2 3.8-4.2a10 10 0 0 1 10-.3c1.4.8 2.5 2 3.3 3.3V2h3v34.7h-2.8v-4.2c-.8 1.4-2 2.6-3.3 3.5a9 9 0 0 1-4.7 1.2Zm0-2.7a7 7 0 0 0 4-1.2 7.8 7.8 0 0 0 2.8-3.2c.7-1.4 1-3 1-5a11 11 0 0 0-1-4.8A7.8 7.8 0 0 0 184 17a7 7 0 0 0-4-1.2c-1.5 0-2.9.4-4 1.2a7.8 7.8 0 0 0-2.8 3.2c-.7 1.4-1 3-1 4.9 0 1.9.3 3.5 1 5a7.8 7.8 0 0 0 2.8 3.1c1.1.8 2.5 1.2 4 1.2Z"/><path fill="#70D574" fill-opacity=".3" stroke="#56ADDE" stroke-width="3" d="M51.3 35.1h-25l12.4-31 12.6 31Z"/></svg>